<svg width="43" height="42" viewBox="0 0 43 42" fill="none" xmlns="http://www.w3.org/2000/svg">
<circle cx="21.3271" cy="21" r="21" fill="#506554"/>
<g clip-path="url(#clip0_140_1502)">
<path d="M22.6778 30.9609H19.4687C18.9327 30.9609 18.4966 30.5258 18.4966 29.9908V22.7667H16.6244C16.0884 22.7667 15.6523 22.3313 15.6523 21.7965V18.701C15.6523 18.166 16.0884 17.7308 16.6244 17.7308H18.4966V16.1807C18.4966 14.6436 18.9802 13.336 19.8949 12.3992C20.8138 11.4582 22.0979 10.9609 23.6084 10.9609L26.0558 10.9649C26.5909 10.9658 27.0262 11.401 27.0262 11.9351V14.8092C27.0262 15.3442 26.5903 15.7794 26.0544 15.7794L24.4066 15.78C23.9041 15.78 23.7761 15.8805 23.7488 15.9113C23.7037 15.9625 23.65 16.107 23.65 16.506V17.7307H25.9306C26.1023 17.7307 26.2686 17.7729 26.4116 17.8526C26.7199 18.0245 26.9117 18.3497 26.9117 18.7011L26.9104 21.7967C26.9104 22.3313 26.4744 22.7665 25.9384 22.7665H23.65V29.9908C23.65 30.5258 23.2138 30.9609 22.6778 30.9609ZM19.6714 29.7885H22.4751V22.2418C22.4751 21.8846 22.7663 21.594 23.1241 21.594H25.7357L25.7367 18.9033H23.1239C22.7662 18.9033 22.4751 18.6128 22.4751 18.2556V16.506C22.4751 16.0479 22.5217 15.527 22.8681 15.1354C23.2867 14.6621 23.9464 14.6075 24.4063 14.6075L25.8514 14.6069V12.1371L23.6075 12.1334C21.18 12.1334 19.6714 13.6843 19.6714 16.1807V18.2556C19.6714 18.6126 19.3803 18.9033 19.0226 18.9033H16.8271V21.594H19.0226C19.3803 21.594 19.6714 21.8846 19.6714 22.2418V29.7885Z" fill="white"/>
</g>
<defs>
<clipPath id="clip0_140_1502">
<rect width="20" height="20" fill="white" transform="translate(11.3271 11)"/>
</clipPath>
</defs>
</svg>
