<svg width="42" height="42" viewBox="0 0 42 42" fill="none" xmlns="http://www.w3.org/2000/svg">
<circle cx="21" cy="21" r="21" fill="#506554"/>
<g clip-path="url(#clip0_140_1720)">
<path d="M25.5862 11H16.4138C13.4286 11 11 13.4286 11 16.4138V25.5863C11 28.5714 13.4286 31 16.4138 31H25.5863C28.5714 31 31 28.5714 31 25.5863V16.4138C31 13.4286 28.5714 11 25.5862 11ZM29.8275 25.5863C29.8275 27.9249 27.9249 29.8275 25.5862 29.8275H16.4138C14.0751 29.8275 12.1725 27.9249 12.1725 25.5863V16.4138C12.1725 14.0751 14.0751 12.1725 16.4138 12.1725H25.5863C27.9249 12.1725 29.8275 14.0751 29.8275 16.4138V25.5863Z" fill="white"/>
<path d="M20.9998 15.5312C17.9844 15.5312 15.5312 17.9844 15.5312 20.9998C15.5312 24.0153 17.9844 26.4684 20.9998 26.4684C24.0153 26.4684 26.4684 24.0153 26.4684 20.9998C26.4684 17.9844 24.0153 15.5312 20.9998 15.5312ZM20.9998 25.2959C18.6311 25.2959 16.7037 23.3688 16.7037 20.9998C16.7037 18.6311 18.6311 16.7037 20.9998 16.7037C23.3688 16.7037 25.2959 18.6311 25.2959 20.9998C25.2959 23.3688 23.3688 25.2959 20.9998 25.2959Z" fill="white"/>
<path d="M26.5993 13.5894C25.7082 13.5894 24.9834 14.3143 24.9834 15.2053C24.9834 16.0964 25.7082 16.8213 26.5993 16.8213C27.4904 16.8213 28.2154 16.0964 28.2154 15.2053C28.2154 14.3141 27.4904 13.5894 26.5993 13.5894ZM26.5993 15.6487C26.3549 15.6487 26.1559 15.4497 26.1559 15.2053C26.1559 14.9607 26.3549 14.7618 26.5993 14.7618C26.8439 14.7618 27.0429 14.9607 27.0429 15.2053C27.0429 15.4497 26.8439 15.6487 26.5993 15.6487Z" fill="white"/>
</g>
<defs>
<clipPath id="clip0_140_1720">
<rect width="20" height="20" fill="white" transform="translate(11 11)"/>
</clipPath>
</defs>
</svg>
