<svg xmlns="http://www.w3.org/2000/svg" width="160" height="160" viewBox="0 0 160 160" fill="none">
  <mask id="mask0_90_225" style="mask-type:alpha" maskUnits="userSpaceOnUse" x="0" y="0" width="160" height="160">
    <rect width="160" height="160" fill="#D9D9D9"/>
  </mask>
  <g>
    <path d="M67.6657 102L101.999 80.0004L67.6657 58.0004V102ZM80.028 138C72.0087 138 64.468 136.479 57.406 133.435C50.3439 130.392 44.2009 126.261 38.9769 121.044C33.753 115.826 29.6174 109.691 26.57 102.638C23.5227 95.5849 21.999 88.0487 21.999 80.0294C21.999 72.01 23.5207 64.4694 26.5642 57.4074C29.6077 50.3453 33.7382 44.2023 38.9555 38.9784C44.173 33.7544 50.3082 29.6187 57.3614 26.5714C64.4145 23.524 71.9507 22.0004 79.97 22.0004C87.9894 22.0004 95.53 23.5221 102.592 26.5655C109.654 29.6091 115.797 33.7395 121.021 38.9569C126.245 44.1743 130.381 50.3096 133.428 57.3627C136.475 64.4158 137.999 71.952 137.999 79.9714C137.999 87.9907 136.477 95.5314 133.434 102.593C130.39 109.655 126.26 115.799 121.043 121.023C115.825 126.246 109.69 130.382 102.637 133.429C95.5836 136.477 88.0474 138 80.028 138ZM79.999 133.334C94.8879 133.334 107.499 128.167 117.832 117.834C128.166 107.5 133.332 94.8893 133.332 80.0004C133.332 65.1115 128.166 52.5004 117.832 42.167C107.499 31.8337 94.8879 26.667 79.999 26.667C65.1101 26.667 52.499 31.8337 42.1657 42.167C31.8324 52.5004 26.6657 65.1115 26.6657 80.0004C26.6657 94.8893 31.8324 107.5 42.1657 117.834C52.499 128.167 65.1101 133.334 79.999 133.334Z" fill="white"/>
  </g>
</svg>