<svg width="42" height="42" viewBox="0 0 42 42" fill="none" xmlns="http://www.w3.org/2000/svg">
<circle cx="21" cy="21" r="21" fill="#506554"/>
<g clip-path="url(#clip0_140_1607)">
<path d="M24.0786 20.1013L19.6602 17.6837C19.4061 17.5447 19.1058 17.5499 18.8568 17.6975C18.6076 17.8452 18.459 18.1061 18.459 18.3957V23.1894C18.459 23.4776 18.6067 23.7381 18.8542 23.886C18.9834 23.9632 19.1267 24.0019 19.2703 24.0019C19.4018 24.0019 19.5337 23.9694 19.655 23.9041L24.0736 21.5282C24.3359 21.387 24.4996 21.1144 24.5008 20.8163C24.5019 20.5183 24.3402 20.2444 24.0786 20.1013ZM19.631 22.5864V19.0036L22.9333 20.8105L19.631 22.5864Z" fill="white"/>
<path d="M30.8528 16.9972L30.8519 16.988C30.835 16.827 30.6664 15.3951 29.9703 14.6668C29.1657 13.8102 28.2535 13.7061 27.8148 13.6562C27.7785 13.6521 27.7452 13.6483 27.7155 13.6443L27.6805 13.6407C25.0365 13.4484 21.0434 13.4222 21.0035 13.422L21 13.4219L20.9965 13.422C20.9565 13.4222 16.9634 13.4484 14.2956 13.6407L14.2603 13.6443C14.232 13.6482 14.2007 13.6517 14.1666 13.6556C13.733 13.7057 12.8306 13.8099 12.0237 14.6975C11.3607 15.418 11.1691 16.8192 11.1494 16.9767L11.1471 16.9972C11.1411 17.0641 11 18.6588 11 20.2598V21.7564C11 23.3573 11.1411 24.952 11.1471 25.0192L11.1482 25.0292C11.1651 25.1876 11.3336 26.5933 12.0265 27.3219C12.783 28.1498 13.7396 28.2594 14.2541 28.3183C14.3354 28.3276 14.4054 28.3355 14.4532 28.3439L14.4994 28.3503C16.0261 28.4956 20.8126 28.5671 21.0155 28.57L21.0216 28.5702L21.0277 28.57C21.0677 28.5699 25.0606 28.5436 27.7046 28.3514L27.7396 28.3477C27.773 28.3433 27.8105 28.3393 27.8517 28.3351C28.283 28.2893 29.1805 28.1942 29.9762 27.3187C30.6392 26.598 30.831 25.1968 30.8505 25.0395L30.8528 25.019C30.8588 24.9519 31.0001 23.3573 31.0001 21.7564V20.2598C30.9999 18.6588 30.8588 17.0643 30.8528 16.9972ZM29.8279 21.7564C29.8279 23.2382 29.6985 24.7642 29.6863 24.9043C29.6366 25.2902 29.4344 26.1767 29.1113 26.5278C28.6133 27.0757 28.1017 27.1301 27.7281 27.1696C27.683 27.1743 27.6412 27.1789 27.6033 27.1836C25.046 27.3686 21.2037 27.3969 21.0267 27.398C20.8281 27.3951 16.1117 27.3229 14.6316 27.1855C14.5557 27.1731 14.4738 27.1636 14.3874 27.1539C13.9494 27.1037 13.3497 27.035 12.8886 26.5278L12.8777 26.5162C12.5604 26.1855 12.364 25.3565 12.3141 24.9088C12.3048 24.8029 12.172 23.2589 12.172 21.7564V20.2598C12.172 18.7797 12.3011 17.2553 12.3136 17.1124C12.373 16.6578 12.579 15.825 12.8886 15.4884C13.4019 14.9238 13.9431 14.8612 14.3011 14.8199C14.3353 14.8159 14.3671 14.8123 14.3966 14.8084C16.9912 14.6226 20.8611 14.595 21 14.5939C21.1388 14.5948 25.0074 14.6226 27.5789 14.8084C27.6105 14.8124 27.645 14.8164 27.6821 14.8206C28.0503 14.8626 28.6067 14.9261 29.1175 15.4708L29.1222 15.4759C29.4396 15.8065 29.6359 16.65 29.6858 17.1067C29.6947 17.2067 29.8279 18.7541 29.8279 20.2598V21.7564Z" fill="white"/>
</g>
<defs>
<clipPath id="clip0_140_1607">
<rect width="20" height="20" fill="white" transform="translate(11 11)"/>
</clipPath>
</defs>
</svg>
